<svg width="37" height="50" viewBox="0 0 37 50" fill="none" xmlns="http://www.w3.org/2000/svg">
<path d="M10.3943 29.5105C11.9298 29.5105 13.4024 28.9005 14.4881 27.8148C15.5738 26.729 16.1838 25.2565 16.1838 23.721C16.1838 20.5252 15.0259 19.0894 13.868 16.7736C11.3855 11.8109 13.3493 7.38543 18.4996 2.87891C19.6575 8.66838 23.1312 14.2263 27.7627 17.9315C32.3943 21.6368 34.7101 26.0368 34.7101 30.6684C34.7101 32.7972 34.2908 34.9051 33.4762 36.8719C32.6615 38.8386 31.4674 40.6257 29.9622 42.131C28.4569 43.6362 26.6698 44.8303 24.7031 45.645C22.7363 46.4596 20.6284 46.8789 18.4996 46.8789C16.3708 46.8789 14.2628 46.4596 12.2961 45.645C10.3293 44.8303 8.5423 43.6362 7.03702 42.131C5.53173 40.6257 4.33767 38.8386 3.52302 36.8719C2.70836 34.9051 2.28906 32.7972 2.28906 30.6684C2.28906 27.9983 3.2918 25.356 4.60485 23.721C4.60485 25.2565 5.21481 26.729 6.30055 27.8148C7.38629 28.9005 8.85886 29.5105 10.3943 29.5105Z" stroke="url(#paint0_linear_12148_16931)" stroke-width="4.5" stroke-linecap="round" stroke-linejoin="round"/>
<defs>
<linearGradient id="paint0_linear_12148_16931" x1="18.4996" y1="2.87891" x2="18.4996" y2="46.8789" gradientUnits="userSpaceOnUse">
<stop offset="0.355" stop-color="#2D90E0"/>
<stop offset="1" stop-color="#FF118C"/>
</linearGradient>
</defs>
</svg>
