<svg width="60" height="61" viewBox="0 0 60 61" fill="none" xmlns="http://www.w3.org/2000/svg">
<path d="M2.5 3L57.5 58M52.5 53H7.5C6.17392 53 4.90215 52.4732 3.96447 51.5355C3.02678 50.5979 2.5 49.3261 2.5 48V20.5C2.5 19.1739 3.02678 17.9021 3.96447 16.9645C4.90215 16.0268 6.17392 15.5 7.5 15.5H15M22.5 8H37.5L42.5 15.5H52.5C53.8261 15.5 55.0979 16.0268 56.0355 16.9645C56.9732 17.9021 57.5 19.1739 57.5 20.5V43.85M38.2 38.7C37.3703 39.9126 36.2835 40.9275 35.017 41.6724C33.7505 42.4174 32.3354 42.874 30.8724 43.01C29.4093 43.1459 27.9343 42.9578 26.5523 42.459C25.1702 41.9602 23.915 41.1629 22.8761 40.1239C21.8371 39.085 21.0398 37.8298 20.541 36.4477C20.0422 35.0657 19.8541 33.5907 19.99 32.1276C20.126 30.6646 20.5826 29.2495 21.3276 27.983C22.0725 26.7165 23.0874 25.6297 24.3 24.8" stroke="url(#paint0_linear_10284_35394)" stroke-width="4" stroke-linecap="round" stroke-linejoin="round"/>
<defs>
<linearGradient id="paint0_linear_10284_35394" x1="30" y1="3" x2="30" y2="58" gradientUnits="userSpaceOnUse">
<stop offset="0.355" stop-color="#2D90E0"/>
<stop offset="1" stop-color="#FF118C"/>
</linearGradient>
</defs>
</svg>
