<svg width="106" height="103" viewBox="0 0 106 103" fill="none" xmlns="http://www.w3.org/2000/svg">
<path d="M56.8447 85.7669L30.3645 94.5902C15.9202 99.4067 8.69551 101.815 4.88203 98.0014C1.06854 94.1879 3.47679 86.9632 8.29327 72.519L17.1217 46.0388C21.1233 34.0341 23.1241 28.0318 27.857 26.9191C32.5899 25.796 37.0668 30.2729 46.0102 39.2215L63.6671 56.8733C72.6105 65.8219 77.0875 70.2936 75.9695 75.0265" stroke="url(#paint0_linear_12148_16929)" stroke-width="6" stroke-linecap="round"/>
<path d="M51.2522 86.0185C51.2522 86.0185 47.2924 74.1027 47.2924 66.2197C47.2924 58.3316 51.2522 46.4105 51.2522 46.4105M29.4683 91.9634C29.4683 91.9634 26.125 77.5818 25.5085 68.1944C24.4899 52.6845 29.4683 28.5916 29.4683 28.5916M63.1366 42.4508L63.8837 38.6895C64.6464 34.8917 67.3837 31.7939 71.0561 30.5715C72.8597 29.9674 74.472 28.8983 75.7304 27.4721C76.9887 26.0459 77.8487 24.313 78.2234 22.4482L78.9757 18.687M79.1219 59.4129L80.2294 60.0555C83.6615 62.0406 87.9765 61.6018 90.9437 58.9741C92.2578 57.8053 93.8795 57.0379 95.6165 56.7629C97.3536 56.4879 99.133 56.7168 100.744 57.4226L102.264 58.0913M38.5057 4.69727C37.6488 6.09842 37.2884 7.74722 37.4827 9.37811C37.677 11.009 38.4145 12.527 39.5766 13.6877L40.0886 14.1996C42.1416 16.2526 42.8991 19.2669 42.058 22.0512" stroke="url(#paint1_linear_12148_16929)" stroke-width="6" stroke-linecap="round"/>
<mask id="path-3-inside-1_12148_16929" fill="white">
<path d="M23.5259 10.76C23.7866 10.5 24.096 10.2939 24.4363 10.1534C24.7767 10.013 25.1413 9.94092 25.5095 9.94141C25.8777 9.94189 26.2422 10.0149 26.5821 10.1562C26.9221 10.2976 27.2309 10.5045 27.4909 10.7652C27.7509 11.0259 27.957 11.3352 28.0975 11.6756C28.2379 12.0159 28.31 12.3806 28.3095 12.7488C28.309 13.1169 28.236 13.4814 28.0946 13.8214C27.9533 14.1614 27.7464 14.4702 27.4857 14.7302C26.9592 15.2553 26.2457 15.5497 25.5021 15.5487C24.7585 15.5478 24.0458 15.2514 23.5207 14.7249C22.9956 14.1985 22.7012 13.485 22.7022 12.7414C22.7031 11.9978 22.9995 11.2851 23.5259 10.76ZM50.842 27.5654C51.1023 27.3051 51.4114 27.0986 51.7515 26.9577C52.0917 26.8168 52.4563 26.7442 52.8245 26.7442C53.1926 26.7442 53.5572 26.8168 53.8974 26.9577C54.2375 27.0986 54.5466 27.3051 54.807 27.5654C55.0673 27.8258 55.2738 28.1348 55.4147 28.475C55.5556 28.8152 55.6281 29.1797 55.6281 29.5479C55.6281 29.9161 55.5556 30.2807 55.4147 30.6208C55.2738 30.961 55.0673 31.2701 54.807 31.5304C54.2812 32.0562 53.568 32.3516 52.8245 32.3516C52.0809 32.3516 51.3678 32.0562 50.842 31.5304C50.3162 31.0046 50.0208 30.2915 50.0208 29.5479C50.0208 28.8043 50.3162 28.0912 50.842 27.5654ZM76.9617 43.2373C77.2221 42.9769 77.5311 42.7704 77.8713 42.6295C78.2115 42.4886 78.576 42.4161 78.9442 42.4161C79.3124 42.4161 79.677 42.4886 80.0171 42.6295C80.3573 42.7704 80.6664 42.9769 80.9267 43.2373C81.1871 43.4976 81.3936 43.8067 81.5345 44.1468C81.6754 44.487 81.7479 44.8516 81.7479 45.2198C81.7479 45.5879 81.6754 45.9525 81.5345 46.2927C81.3936 46.6328 81.1871 46.9419 80.9267 47.2023C80.4009 47.728 79.6878 48.0234 78.9442 48.0234C78.2006 48.0234 77.4875 47.728 76.9617 47.2023C76.4359 46.6765 76.1406 45.9633 76.1406 45.2198C76.1406 44.4762 76.4359 43.7631 76.9617 43.2373ZM86.8925 70.172C87.1528 69.9116 87.4619 69.7051 87.802 69.5642C88.1422 69.4233 88.5068 69.3508 88.8749 69.3508C89.2431 69.3508 89.6077 69.4233 89.9479 69.5642C90.288 69.7051 90.5971 69.9116 90.8574 70.172C91.1178 70.4323 91.3243 70.7414 91.4652 71.0815C91.6061 71.4217 91.6786 71.7863 91.6786 72.1544C91.6786 72.5226 91.6061 72.8872 91.4652 73.2274C91.3243 73.5675 91.1178 73.8766 90.8574 74.1369C90.3316 74.6627 89.6185 74.9581 88.8749 74.9581C88.1314 74.9581 87.4183 74.6627 86.8925 74.1369C86.3667 73.6112 86.0713 72.898 86.0713 72.1544C86.0713 71.4109 86.3667 70.6977 86.8925 70.172Z"/>
</mask>
<path d="M23.5259 10.76C23.7866 10.5 24.096 10.2939 24.4363 10.1534C24.7767 10.013 25.1413 9.94092 25.5095 9.94141C25.8777 9.94189 26.2422 10.0149 26.5821 10.1562C26.9221 10.2976 27.2309 10.5045 27.4909 10.7652C27.7509 11.0259 27.957 11.3352 28.0975 11.6756C28.2379 12.0159 28.31 12.3806 28.3095 12.7488C28.309 13.1169 28.236 13.4814 28.0946 13.8214C27.9533 14.1614 27.7464 14.4702 27.4857 14.7302C26.9592 15.2553 26.2457 15.5497 25.5021 15.5487C24.7585 15.5478 24.0458 15.2514 23.5207 14.7249C22.9956 14.1985 22.7012 13.485 22.7022 12.7414C22.7031 11.9978 22.9995 11.2851 23.5259 10.76ZM50.842 27.5654C51.1023 27.3051 51.4114 27.0986 51.7515 26.9577C52.0917 26.8168 52.4563 26.7442 52.8245 26.7442C53.1926 26.7442 53.5572 26.8168 53.8974 26.9577C54.2375 27.0986 54.5466 27.3051 54.807 27.5654C55.0673 27.8258 55.2738 28.1348 55.4147 28.475C55.5556 28.8152 55.6281 29.1797 55.6281 29.5479C55.6281 29.9161 55.5556 30.2807 55.4147 30.6208C55.2738 30.961 55.0673 31.2701 54.807 31.5304C54.2812 32.0562 53.568 32.3516 52.8245 32.3516C52.0809 32.3516 51.3678 32.0562 50.842 31.5304C50.3162 31.0046 50.0208 30.2915 50.0208 29.5479C50.0208 28.8043 50.3162 28.0912 50.842 27.5654ZM76.9617 43.2373C77.2221 42.9769 77.5311 42.7704 77.8713 42.6295C78.2115 42.4886 78.576 42.4161 78.9442 42.4161C79.3124 42.4161 79.677 42.4886 80.0171 42.6295C80.3573 42.7704 80.6664 42.9769 80.9267 43.2373C81.1871 43.4976 81.3936 43.8067 81.5345 44.1468C81.6754 44.487 81.7479 44.8516 81.7479 45.2198C81.7479 45.5879 81.6754 45.9525 81.5345 46.2927C81.3936 46.6328 81.1871 46.9419 80.9267 47.2023C80.4009 47.728 79.6878 48.0234 78.9442 48.0234C78.2006 48.0234 77.4875 47.728 76.9617 47.2023C76.4359 46.6765 76.1406 45.9633 76.1406 45.2198C76.1406 44.4762 76.4359 43.7631 76.9617 43.2373ZM86.8925 70.172C87.1528 69.9116 87.4619 69.7051 87.802 69.5642C88.1422 69.4233 88.5068 69.3508 88.8749 69.3508C89.2431 69.3508 89.6077 69.4233 89.9479 69.5642C90.288 69.7051 90.5971 69.9116 90.8574 70.172C91.1178 70.4323 91.3243 70.7414 91.4652 71.0815C91.6061 71.4217 91.6786 71.7863 91.6786 72.1544C91.6786 72.5226 91.6061 72.8872 91.4652 73.2274C91.3243 73.5675 91.1178 73.8766 90.8574 74.1369C90.3316 74.6627 89.6185 74.9581 88.8749 74.9581C88.1314 74.9581 87.4183 74.6627 86.8925 74.1369C86.3667 73.6112 86.0713 72.898 86.0713 72.1544C86.0713 71.4109 86.3667 70.6977 86.8925 70.172Z" fill="#353E45"/>
<path d="M23.5259 10.76L27.763 15.0082L23.5259 10.76ZM27.4857 14.7302L31.7227 18.9784L27.4857 14.7302ZM50.842 27.5654L46.5993 23.3228L50.842 27.5654ZM52.8245 26.7442V20.7442V26.7442ZM55.6281 29.5479H49.6281H55.6281ZM54.807 31.5304L50.5643 27.2878L54.807 31.5304ZM52.8245 32.3516V26.3516V32.3516ZM50.0208 29.5479H44.0208H50.0208ZM81.7479 45.2198H75.7479H81.7479ZM80.9267 47.2023L76.6841 42.9596L80.9267 47.2023ZM78.9442 48.0234V54.0234V48.0234ZM76.1406 45.2198H82.1406H76.1406ZM86.8925 70.172L82.6498 65.9293L86.8925 70.172ZM88.8749 69.3508V63.3508V69.3508ZM90.8574 74.1369L86.6148 69.8943L90.8574 74.1369ZM88.8749 74.9581V68.9581V74.9581ZM86.0713 72.1544H92.0713H86.0713ZM27.763 15.0082C27.4658 15.3046 27.1131 15.5396 26.7251 15.6997L22.1475 4.60711C21.0788 5.04813 20.1075 5.69533 19.2889 6.51174L27.763 15.0082ZM26.7251 15.6997C26.3371 15.8598 25.9214 15.942 25.5016 15.9414L25.5174 3.94141C24.3613 3.93989 23.2162 4.1661 22.1475 4.60711L26.7251 15.6997ZM25.5016 15.9414C25.0818 15.9409 24.6663 15.8576 24.2787 15.6965L28.8855 4.61599C27.818 4.17216 26.6735 3.94294 25.5174 3.94141L25.5016 15.9414ZM24.2787 15.6965C23.8912 15.5353 23.5391 15.2994 23.2427 15.0022L31.7391 6.52815C30.9227 5.70958 29.9531 5.05983 28.8855 4.61599L24.2787 15.6965ZM23.2427 15.0022C22.9463 14.705 22.7113 14.3524 22.5512 13.9644L33.6438 9.38677C33.2028 8.31808 32.5556 7.34672 31.7391 6.52815L23.2427 15.0022ZM22.5512 13.9644C22.3911 13.5764 22.3089 13.1606 22.3095 12.7409L34.3095 12.7567C34.311 11.6005 34.0848 10.4554 33.6438 9.38677L22.5512 13.9644ZM22.3095 12.7409C22.31 12.3211 22.3933 11.9056 22.5544 11.518L33.6349 16.1248C34.0787 15.0573 34.3079 13.9128 34.3095 12.7567L22.3095 12.7409ZM22.5544 11.518C22.7155 11.1304 22.9514 10.7784 23.2486 10.4819L31.7227 18.9784C32.5413 18.162 33.1911 17.1923 33.6349 16.1248L22.5544 11.518ZM23.2486 10.4819C23.8489 9.88332 24.6623 9.54762 25.51 9.54874L25.4942 21.5487C27.8291 21.5518 30.0696 20.6272 31.7227 18.9784L23.2486 10.4819ZM25.51 9.54874C26.3578 9.54986 27.1703 9.88769 27.7689 10.4879L19.2725 18.962C20.9213 20.6152 23.1593 21.5457 25.4942 21.5487L25.51 9.54874ZM27.7689 10.4879C28.3676 11.0881 28.7033 11.9016 28.7021 12.7493L16.7022 12.7335C16.6991 15.0683 17.6237 17.3088 19.2725 18.962L27.7689 10.4879ZM28.7021 12.7493C28.701 13.597 28.3632 14.4096 27.763 15.0082L19.2889 6.51174C17.6357 8.16058 16.7052 10.3986 16.7022 12.7335L28.7021 12.7493ZM55.0846 31.8081C54.7878 32.1049 54.4354 32.3403 54.0476 32.5009L49.4554 21.4144C48.3873 21.8568 47.4168 22.5053 46.5993 23.3228L55.0846 31.8081ZM54.0476 32.5009C53.6599 32.6616 53.2442 32.7442 52.8245 32.7442V20.7442C51.6683 20.7442 50.5236 20.972 49.4554 21.4144L54.0476 32.5009ZM52.8245 32.7442C52.4047 32.7442 51.9891 32.6616 51.6013 32.5009L56.1935 21.4144C55.1254 20.972 53.9806 20.7442 52.8245 20.7442V32.7442ZM51.6013 32.5009C51.2135 32.3403 50.8611 32.1049 50.5643 31.8081L59.0496 23.3228C58.2321 22.5053 57.2616 21.8568 56.1935 21.4144L51.6013 32.5009ZM50.5643 31.8081C50.2675 31.5112 50.0321 31.1589 49.8714 30.7711L60.958 26.1789C60.5156 25.1108 59.8671 24.1403 59.0496 23.3228L50.5643 31.8081ZM49.8714 30.7711C49.7108 30.3833 49.6281 29.9677 49.6281 29.5479H61.6281C61.6281 28.3918 61.4004 27.247 60.958 26.1789L49.8714 30.7711ZM49.6281 29.5479C49.6281 29.1281 49.7108 28.7125 49.8714 28.3247L60.958 32.9169C61.4004 31.8488 61.6281 30.704 61.6281 29.5479H49.6281ZM49.8714 28.3247C50.0321 27.9369 50.2675 27.5846 50.5643 27.2878L59.0496 35.773C59.8671 34.9555 60.5156 33.985 60.958 32.9169L49.8714 28.3247ZM50.5643 27.2878C51.1637 26.6883 51.9767 26.3516 52.8245 26.3516V38.3516C55.1593 38.3516 57.3986 37.424 59.0496 35.773L50.5643 27.2878ZM52.8245 26.3516C53.6722 26.3516 54.4852 26.6883 55.0846 27.2878L46.5993 35.773C48.2503 37.424 50.4896 38.3516 52.8245 38.3516V26.3516ZM55.0846 27.2878C55.6841 27.8872 56.0208 28.7002 56.0208 29.5479H44.0208C44.0208 31.8828 44.9483 34.122 46.5993 35.773L55.0846 27.2878ZM56.0208 29.5479C56.0208 30.3956 55.6841 31.2086 55.0846 31.8081L46.5993 23.3228C44.9483 24.9738 44.0208 27.2131 44.0208 29.5479H56.0208ZM81.2044 47.4799C80.9076 47.7767 80.5552 48.0122 80.1674 48.1728L75.5752 37.0862C74.5071 37.5287 73.5366 38.1771 72.7191 38.9946L81.2044 47.4799ZM80.1674 48.1728C79.7795 48.3335 79.3639 48.4161 78.9442 48.4161V36.4161C77.7882 36.4161 76.6434 36.6438 75.5752 37.0862L80.1674 48.1728ZM78.9442 48.4161C78.5245 48.4161 78.1089 48.3334 77.721 48.1728L82.3132 37.0862C81.2451 36.6438 80.1003 36.4161 78.9442 36.4161V48.4161ZM77.721 48.1728C77.3332 48.0122 76.9809 47.7767 76.6841 47.4799L85.1693 38.9946C84.3519 38.1771 83.3814 37.5287 82.3132 37.0862L77.721 48.1728ZM76.6841 47.4799C76.3873 47.1831 76.1518 46.8308 75.9912 46.4429L87.0777 41.8507C86.6353 40.7826 85.9868 39.8121 85.1693 38.9946L76.6841 47.4799ZM75.9912 46.4429C75.8306 46.0551 75.7479 45.6395 75.7479 45.2198H87.7479C87.7479 44.0637 87.5202 42.9189 87.0777 41.8507L75.9912 46.4429ZM75.7479 45.2198C75.7479 44.8 75.8305 44.3844 75.9912 43.9966L87.0777 48.5888C87.5202 47.5206 87.7479 46.3758 87.7479 45.2198H75.7479ZM75.9912 43.9966C76.1518 43.6088 76.3873 43.2564 76.6841 42.9596L85.1693 51.4449C85.9868 50.6274 86.6353 49.6569 87.0777 48.5888L75.9912 43.9966ZM76.6841 42.9596C77.2835 42.3602 78.0965 42.0234 78.9442 42.0234V54.0234C81.2791 54.0234 83.5183 53.0959 85.1693 51.4449L76.6841 42.9596ZM78.9442 42.0234C79.7919 42.0234 80.6049 42.3602 81.2044 42.9596L72.7191 51.4449C74.3701 53.0959 76.6094 54.0234 78.9442 54.0234V42.0234ZM81.2044 42.9596C81.8038 43.559 82.1406 44.372 82.1406 45.2198H70.1406C70.1406 47.5546 71.0681 49.7939 72.7191 51.4449L81.2044 42.9596ZM82.1406 45.2198C82.1406 46.0675 81.8038 46.8805 81.2044 47.4799L72.7191 38.9946C71.0681 40.6456 70.1406 42.8849 70.1406 45.2198H82.1406ZM91.1351 74.4146C90.8383 74.7114 90.4859 74.9469 90.0981 75.1075L85.5059 64.0209C84.4378 64.4633 83.4673 65.1118 82.6498 65.9293L91.1351 74.4146ZM90.0981 75.1075C89.7104 75.2681 89.2947 75.3508 88.8749 75.3508V63.3508C87.7188 63.3508 86.574 63.5785 85.5059 64.0209L90.0981 75.1075ZM88.8749 75.3508C88.4552 75.3508 88.0395 75.2681 87.6518 75.1075L92.244 64.0209C91.1759 63.5785 90.0311 63.3508 88.8749 63.3508V75.3508ZM87.6518 75.1075C87.264 74.9469 86.9116 74.7114 86.6148 74.4146L95.1001 65.9293C94.2826 65.1118 93.3121 64.4633 92.244 64.0209L87.6518 75.1075ZM86.6148 74.4146C86.318 74.1178 86.0826 73.7654 85.9219 73.3776L97.0085 68.7854C96.566 67.7173 95.9176 66.7468 95.1001 65.9293L86.6148 74.4146ZM85.9219 73.3776C85.7613 72.9898 85.6786 72.5742 85.6786 72.1544H97.6786C97.6786 70.9983 97.4509 69.8535 97.0085 68.7854L85.9219 73.3776ZM85.6786 72.1544C85.6786 71.7347 85.7613 71.3191 85.9219 70.9313L97.0085 75.5235C97.4509 74.4554 97.6786 73.3106 97.6786 72.1544H85.6786ZM85.9219 70.9313C86.0826 70.5435 86.318 70.1911 86.6148 69.8943L95.1001 78.3796C95.9176 77.5621 96.566 76.5916 97.0085 75.5235L85.9219 70.9313ZM86.6148 69.8943C87.2142 69.2949 88.0272 68.9581 88.8749 68.9581V80.9581C91.2098 80.9581 93.4491 80.0306 95.1001 78.3796L86.6148 69.8943ZM88.8749 68.9581C89.7227 68.9581 90.5357 69.2949 91.1351 69.8943L82.6498 78.3796C84.3008 80.0306 86.5401 80.9581 88.8749 80.9581V68.9581ZM91.1351 69.8943C91.7345 70.4937 92.0713 71.3067 92.0713 72.1544H80.0713C80.0713 74.4893 80.9988 76.7286 82.6498 78.3796L91.1351 69.8943ZM92.0713 72.1544C92.0713 73.0022 91.7345 73.8152 91.1351 74.4146L82.6498 65.9293C80.9988 67.5803 80.0713 69.8196 80.0713 72.1544H92.0713Z" fill="url(#paint2_linear_12148_16929)" mask="url(#path-3-inside-1_12148_16929)"/>
<path d="M88.4824 30.476C84.9824 33.976 87.4899 44.1314 87.4899 44.1314C87.4899 44.1314 97.6452 46.6441 101.145 43.1388C104.854 39.4298 102.754 34.5715 97.0393 34.582C97.0549 28.867 92.1914 26.767 88.4824 30.476Z" stroke="url(#paint3_linear_12148_16929)" stroke-width="6" stroke-linejoin="round"/>
<path d="M66.679 8.02928L66.5379 8.54123C66.3812 9.09497 66.2976 9.37706 66.3394 9.64871C66.376 9.92035 66.5223 10.1607 66.8253 10.636L67.0969 11.0644C68.1521 12.7361 68.6798 13.5719 68.3193 14.2562C67.9589 14.9406 66.9506 15.0189 64.9342 15.1756L64.4118 15.2174C63.8372 15.2645 63.5551 15.2853 63.3043 15.4159C63.0536 15.5465 62.8707 15.7712 62.4946 16.2257L62.1603 16.6384C60.8491 18.2264 60.1961 19.0205 59.4438 18.9212C58.702 18.8167 58.3572 17.8869 57.6677 16.0219L57.4901 15.5413C57.2968 15.0085 57.1975 14.7473 57.0042 14.5488C56.8109 14.3607 56.5498 14.2615 56.0169 14.0682L55.5363 13.8906C53.6714 13.201 52.7415 12.8562 52.637 12.1144C52.5325 11.3622 53.3318 10.7039 54.9199 9.39796L55.3326 9.0584C55.7818 8.69272 56.0117 8.50466 56.1423 8.25391C56.2729 8.00316 56.299 7.71584 56.3408 7.14121L56.3826 6.61881C56.5393 4.60759 56.6177 3.59937 57.302 3.23892C57.9811 2.87847 58.8169 3.40608 60.4886 4.46132L60.9222 4.73297C61.3976 5.03596 61.6379 5.18223 61.9095 5.2188C62.1812 5.25536 62.4633 5.177 63.017 5.02029L63.5289 4.87924C65.4879 4.32028 66.47 4.04341 66.9924 4.5658C67.5148 5.0882 67.238 6.0703 66.679 8.02928Z" stroke="url(#paint4_linear_12148_16929)" stroke-width="6"/>
<defs>
<linearGradient id="paint0_linear_12148_16929" x1="39.5691" y1="26.749" x2="39.5691" y2="99.8834" gradientUnits="userSpaceOnUse">
<stop offset="0.355" stop-color="#2D90E0"/>
<stop offset="1" stop-color="#FF118C"/>
</linearGradient>
<linearGradient id="paint1_linear_12148_16929" x1="63.8176" y1="4.69727" x2="63.8176" y2="91.9634" gradientUnits="userSpaceOnUse">
<stop offset="0.355" stop-color="#2D90E0"/>
<stop offset="1" stop-color="#FF118C"/>
</linearGradient>
<linearGradient id="paint2_linear_12148_16929" x1="57.1904" y1="9.94141" x2="57.1904" y2="74.9581" gradientUnits="userSpaceOnUse">
<stop offset="0.355" stop-color="#2D90E0"/>
<stop offset="1" stop-color="#FF118C"/>
</linearGradient>
<linearGradient id="paint3_linear_12148_16929" x1="94.8101" y1="28.6211" x2="94.8101" y2="45.0034" gradientUnits="userSpaceOnUse">
<stop offset="0.355" stop-color="#2D90E0"/>
<stop offset="1" stop-color="#FF118C"/>
</linearGradient>
<linearGradient id="paint4_linear_12148_16929" x1="60.5301" y1="3.12598" x2="60.5301" y2="18.9295" gradientUnits="userSpaceOnUse">
<stop offset="0.355" stop-color="#2D90E0"/>
<stop offset="1" stop-color="#FF118C"/>
</linearGradient>
</defs>
</svg>
