<svg width="61" height="61" viewBox="0 0 61 61" fill="none" xmlns="http://www.w3.org/2000/svg">
<g clip-path="url(#clip0_12027_23398)">
<path d="M56.6685 3.88505L15.7743 37.965M25.4086 47.6422L34.7428 56.9336C35.3161 57.5211 36.0328 57.9488 36.822 58.1743C37.6113 58.3998 38.4457 58.4153 39.2428 58.2193C40.0441 58.0322 40.7839 57.6423 41.391 57.0869C41.9982 56.5315 42.4524 55.8294 42.71 55.0479L58.0357 9.10505C58.3563 8.24457 58.4229 7.31007 58.2276 6.41281C58.0323 5.51555 57.5832 4.69332 56.9339 4.044C56.2846 3.39468 55.4623 2.94563 54.5651 2.75029C53.6678 2.55495 52.7333 2.62156 51.8728 2.94219L5.92998 18.2722C5.12161 18.5481 4.40152 19.0348 3.84401 19.682C3.28651 20.3291 2.9118 21.1133 2.75855 21.9536C2.60109 22.7186 2.63614 23.5107 2.86056 24.2587C3.08498 25.0068 3.49173 25.6874 4.04427 26.2393L15.7743 37.9693L15.3886 52.8236L25.4086 47.6422Z" stroke="url(#paint0_linear_12027_23398)" stroke-width="4" stroke-linecap="round" stroke-linejoin="round"/>
</g>
<defs>
<linearGradient id="paint0_linear_12027_23398" x1="30.4995" y1="2.64062" x2="30.4995" y2="58.3557" gradientUnits="userSpaceOnUse">
<stop offset="0.355" stop-color="#2D90E0"/>
<stop offset="1" stop-color="#FF118C"/>
</linearGradient>
<clipPath id="clip0_12027_23398">
<rect width="60" height="60" fill="white" transform="translate(0.5 0.5)"/>
</clipPath>
</defs>
</svg>
