<svg width="60" height="61" viewBox="0 0 60 61" fill="none" xmlns="http://www.w3.org/2000/svg">
<path d="M30 0.5C46.569 0.5 60 13.931 60 30.5C60 32.681 59.766 34.805 59.325 36.854L53.979 31.505C53.993 31.175 54 30.84 54 30.5C53.9984 25.2727 52.2903 20.1889 49.1352 16.0211C45.9801 11.8534 41.5506 8.82976 36.5199 7.4097C31.4892 5.98965 26.1324 6.25087 21.2637 8.15365C16.3951 10.0564 12.2808 13.4967 9.54614 17.9517C6.81152 22.4066 5.60612 27.6325 6.11317 32.8351C6.62022 38.0378 8.81199 42.9326 12.3553 46.7757C15.8987 50.6187 20.5998 53.1999 25.7443 54.1268C30.8887 55.0537 36.1951 54.2757 40.857 51.911C41.321 52.651 41.874 53.342 42.516 53.984C43.422 54.893 44.436 55.625 45.519 56.18C40.839 59.0136 35.4709 60.5079 30 60.5C13.431 60.5 0 47.069 0 30.5C0 13.931 13.431 0.5 30 0.5ZM51 37.016L55.242 41.258C56.0677 42.0835 56.6347 43.1319 56.8734 44.2749C57.1121 45.4179 57.0121 46.6056 56.5857 47.6926C56.1592 48.7795 55.425 49.7185 54.4728 50.3943C53.5206 51.07 52.392 51.4533 51.2252 51.4971C50.0584 51.541 48.9042 51.2434 47.904 50.6409C46.9039 50.0384 46.1012 49.1571 45.5945 48.1052C45.0878 47.0533 44.899 45.8764 45.0514 44.7187C45.2037 43.5611 45.6904 42.473 46.452 41.588L46.758 41.258L51 37.016ZM30 39.5C34.398 39.5 38.355 41.393 41.1 44.411L38.265 46.991C35.895 46.046 33.054 45.5 30 45.5C26.946 45.5 24.105 46.049 21.735 46.988L18.9 44.408C20.3062 42.8617 22.0199 41.6264 23.9314 40.7812C25.8429 39.936 27.91 39.4996 30 39.5ZM19.5 24.5C20.6935 24.5 21.8381 24.9741 22.682 25.818C23.5259 26.6619 24 27.8065 24 29C24 30.1935 23.5259 31.3381 22.682 32.182C21.8381 33.0259 20.6935 33.5 19.5 33.5C18.3065 33.5 17.1619 33.0259 16.318 32.182C15.4741 31.3381 15 30.1935 15 29C15 27.8065 15.4741 26.6619 16.318 25.818C17.1619 24.9741 18.3065 24.5 19.5 24.5ZM40.5 24.5C41.6935 24.5 42.838 24.9741 43.682 25.818C44.5259 26.6619 45 27.8065 45 29C45 30.1935 44.5259 31.3381 43.682 32.182C42.838 33.0259 41.6935 33.5 40.5 33.5C39.3065 33.5 38.1619 33.0259 37.318 32.182C36.4741 31.3381 36 30.1935 36 29C36 27.8065 36.4741 26.6619 37.318 25.818C38.1619 24.9741 39.3065 24.5 40.5 24.5Z" fill="url(#paint0_linear_12190_16937)"/>
<defs>
<linearGradient id="paint0_linear_12190_16937" x1="30" y1="0.5" x2="30" y2="60.5" gradientUnits="userSpaceOnUse">
<stop offset="0.355" stop-color="#2D90E0"/>
<stop offset="1" stop-color="#FF118C"/>
</linearGradient>
</defs>
</svg>
