<svg width="37" height="36" viewBox="0 0 37 36" fill="none" xmlns="http://www.w3.org/2000/svg">
<path d="M31.8015 16.493C30.6115 14.403 23.8615 2.34303 23.8615 2.34303C23.775 2.18672 23.6483 2.05644 23.4944 1.96572C23.3405 1.875 23.1652 1.82715 22.9865 1.82715C22.8079 1.82715 22.6325 1.875 22.4786 1.96572C22.3248 2.05644 22.198 2.18672 22.1115 2.34303L16.1115 12.983L13.1115 7.70303C13.025 7.54672 12.8983 7.41644 12.7444 7.32572C12.5905 7.235 12.4152 7.18715 12.2365 7.18715C12.0579 7.18715 11.8825 7.235 11.7286 7.32572C11.5748 7.41644 11.448 7.54672 11.3615 7.70303C11.3615 7.70303 5.90153 17.603 4.92153 19.323C3.96224 20.8524 3.46884 22.628 3.50152 24.433C3.50152 29.543 7.38153 34.083 12.1715 34.173H22.9815C28.7815 34.173 33.5015 28.793 33.5015 22.613C33.5413 20.4512 32.9506 18.3246 31.8015 16.493ZM21.9815 32.173H15.0415C13.8401 32.1373 12.6986 31.6407 11.8534 30.7862C11.0082 29.9317 10.5241 28.7847 10.5015 27.583C10.4928 26.7426 10.7559 25.9218 11.2515 25.243L14.6015 20.033C14.6469 19.9629 14.709 19.9052 14.7824 19.8652C14.8558 19.8253 14.938 19.8043 15.0215 19.8043C15.1051 19.8043 15.1873 19.8253 15.2606 19.8652C15.334 19.9052 15.3962 19.9629 15.4415 20.033L17.2215 22.803V22.723C17.8515 21.613 21.4515 15.243 21.4515 15.243C21.4951 15.1661 21.5584 15.1021 21.6348 15.0575C21.7112 15.013 21.7981 14.9896 21.8865 14.9896C21.975 14.9896 22.0618 15.013 22.1383 15.0575C22.2147 15.1021 22.2779 15.1661 22.3215 15.243C22.3215 15.243 25.9215 21.623 26.5515 22.723C27.1752 23.6771 27.5055 24.7932 27.5015 25.933C27.5015 32.173 22.6015 32.173 21.9815 32.173Z" fill="url(#paint0_linear_10282_46333)"/>
<defs>
<linearGradient id="paint0_linear_10282_46333" x1="18.5017" y1="1.82715" x2="18.5017" y2="34.173" gradientUnits="userSpaceOnUse">
<stop stop-color="#2E91E1"/>
<stop offset="1" stop-color="#4DC53C"/>
</linearGradient>
</defs>
</svg>
