<svg width="36" height="36" viewBox="0 0 36 36" fill="none" xmlns="http://www.w3.org/2000/svg">
<path d="M31.3015 16.493C30.1115 14.403 23.3615 2.34303 23.3615 2.34303C23.275 2.18672 23.1483 2.05644 22.9944 1.96572C22.8405 1.875 22.6652 1.82715 22.4865 1.82715C22.3079 1.82715 22.1325 1.875 21.9786 1.96572C21.8248 2.05644 21.698 2.18672 21.6115 2.34303L15.6115 12.983L12.6115 7.70303C12.525 7.54672 12.3983 7.41644 12.2444 7.32572C12.0905 7.235 11.9152 7.18715 11.7365 7.18715C11.5579 7.18715 11.3825 7.235 11.2286 7.32572C11.0748 7.41644 10.948 7.54672 10.8615 7.70303C10.8615 7.70303 5.40153 17.603 4.42153 19.323C3.46224 20.8524 2.96884 22.628 3.00152 24.433C3.00152 29.543 6.88153 34.083 11.6715 34.173H22.4815C28.2815 34.173 33.0015 28.793 33.0015 22.613C33.0413 20.4512 32.4506 18.3246 31.3015 16.493ZM21.4815 32.173H14.5415C13.3401 32.1373 12.1986 31.6407 11.3534 30.7862C10.5082 29.9317 10.0241 28.7847 10.0015 27.583C9.99285 26.7426 10.2559 25.9218 10.7515 25.243L14.1015 20.033C14.1469 19.9629 14.209 19.9052 14.2824 19.8652C14.3558 19.8253 14.438 19.8043 14.5215 19.8043C14.6051 19.8043 14.6873 19.8253 14.7606 19.8652C14.834 19.9052 14.8962 19.9629 14.9415 20.033L16.7215 22.803V22.723C17.3515 21.613 20.9515 15.243 20.9515 15.243C20.9951 15.1661 21.0584 15.1021 21.1348 15.0575C21.2112 15.013 21.2981 14.9896 21.3865 14.9896C21.475 14.9896 21.5618 15.013 21.6383 15.0575C21.7147 15.1021 21.7779 15.1661 21.8215 15.243C21.8215 15.243 25.4215 21.623 26.0515 22.723C26.6752 23.6771 27.0055 24.7932 27.0015 25.933C27.0015 32.173 22.1015 32.173 21.4815 32.173Z" fill="url(#paint0_linear_10282_46326)"/>
<defs>
<linearGradient id="paint0_linear_10282_46326" x1="18.0017" y1="1.82715" x2="18.0017" y2="34.173" gradientUnits="userSpaceOnUse">
<stop stop-color="#2E91E1"/>
<stop offset="1" stop-color="#FE2998"/>
</linearGradient>
</defs>
</svg>
