<svg width="24" height="24" viewBox="0 0 24 24" fill="none" xmlns="http://www.w3.org/2000/svg">
<path d="M15.8519 7.99276e-05H8.09997C5.9527 0.00325402 3.89428 0.857661 2.37593 2.37601C0.857581 3.89436 0.0031741 5.95278 0 8.10005V15.9C0.0031741 18.0473 0.857581 20.1057 2.37593 21.6241C3.89428 23.1424 5.9527 23.9968 8.09997 24H15.8999C18.0472 23.9968 20.1056 23.1424 21.624 21.6241C23.1423 20.1057 23.9967 18.0473 23.9999 15.9V8.10005C23.9984 7.03275 23.7862 5.97624 23.3756 4.99109C22.9649 4.00593 22.3639 3.11149 21.607 2.35902C20.8501 1.60655 19.9521 1.01086 18.9645 0.606063C17.977 0.201271 16.9192 -0.00465779 15.8519 7.99276e-05ZM7.71597 17.076C7.71597 17.3306 7.61483 17.5748 7.4348 17.7548C7.25476 17.9349 7.01058 18.036 6.75598 18.036C6.50137 18.036 6.25719 17.9349 6.07716 17.7548C5.89712 17.5748 5.79598 17.3306 5.79598 17.076V10.956C5.79598 10.7014 5.89712 10.4573 6.07716 10.2772C6.25719 10.0972 6.50137 9.99605 6.75598 9.99605C7.01058 9.99605 7.25476 10.0972 7.4348 10.2772C7.61483 10.4573 7.71597 10.7014 7.71597 10.956V17.076ZM13.056 17.076C13.056 17.2021 13.0311 17.3269 12.9829 17.4434C12.9346 17.5599 12.8639 17.6657 12.7748 17.7548C12.6856 17.844 12.5798 17.9147 12.4633 17.9629C12.3469 18.0112 12.222 18.036 12.096 18.036C11.9699 18.036 11.8451 18.0112 11.7286 17.9629C11.6121 17.9147 11.5063 17.844 11.4171 17.7548C11.328 17.6657 11.2573 17.5599 11.209 17.4434C11.1608 17.3269 11.136 17.2021 11.136 17.076V6.93606C11.136 6.68145 11.2371 6.43727 11.4171 6.25724C11.5972 6.0772 11.8414 5.97606 12.096 5.97606C12.3506 5.97606 12.5947 6.0772 12.7748 6.25724C12.9548 6.43727 13.056 6.68145 13.056 6.93606V17.076ZM18.1079 17.076C18.1079 17.3306 18.0068 17.5748 17.8268 17.7548C17.6467 17.9349 17.4026 18.036 17.1479 18.036C16.8933 18.036 16.6492 17.9349 16.4691 17.7548C16.2891 17.5748 16.1879 17.3306 16.1879 17.076V9.38405C16.1879 9.12944 16.2891 8.88526 16.4691 8.70523C16.6492 8.52519 16.8933 8.42405 17.1479 8.42405C17.4026 8.42405 17.6467 8.52519 17.8268 8.70523C18.0068 8.88526 18.1079 9.12944 18.1079 9.38405V17.076Z" fill="#353E45"/>
</svg>
