<svg width="14" height="14" viewBox="0 0 14 14" fill="none" xmlns="http://www.w3.org/2000/svg">
<path d="M12.9719 0.751862C12.7423 0.624247 12.4898 0.543115 12.2288 0.513099C11.9679 0.483083 11.7036 0.504772 11.451 0.576925C11.1984 0.649079 10.9625 0.770285 10.7567 0.93362C10.551 1.09696 10.3795 1.29922 10.2519 1.52886L6.53892 8.21086L4.41392 6.08586C4.22942 5.89484 4.00874 5.74248 3.76473 5.63766C3.52072 5.53284 3.25828 5.47767 2.99272 5.47536C2.72716 5.47305 2.4638 5.52366 2.21801 5.62422C1.97222 5.72478 1.74891 5.87329 1.56113 6.06107C1.37334 6.24886 1.22484 6.47216 1.12427 6.71795C1.02371 6.96375 0.97311 7.22711 0.975417 7.49266C0.977725 7.75822 1.0329 8.02066 1.13772 8.26467C1.24253 8.50868 1.3949 8.72937 1.58592 8.91386L5.58592 12.9139C5.96392 13.2929 6.47392 13.5009 6.99992 13.5009L7.27692 13.4809C7.58347 13.438 7.87588 13.3245 8.13114 13.1494C8.38639 12.9744 8.59753 12.7424 8.74792 12.4719L13.7479 3.47186C13.8756 3.24231 13.9568 2.98987 13.9869 2.72894C14.0169 2.46801 13.9953 2.20372 13.9233 1.95114C13.8512 1.69856 13.7301 1.46265 13.5669 1.25688C13.4036 1.0511 13.2015 0.8795 12.9719 0.751862Z" fill="#353E45"/>
</svg>
