<svg width="35" height="41" viewBox="0 0 35 41" fill="none" xmlns="http://www.w3.org/2000/svg">
<path fill-rule="evenodd" clip-rule="evenodd" d="M17.4166 0.830078C16.9034 0.830078 16.4112 1.03396 16.0483 1.39688C15.6853 1.7598 15.4815 2.25202 15.4815 2.76526V6.63562H3.87036C2.84388 6.63562 1.85944 7.04339 1.1336 7.76923C0.407769 8.49506 0 9.4795 0 10.506V35.6633C0 36.6898 0.407769 37.6743 1.1336 38.4001C1.85944 39.1259 2.84388 39.5337 3.87036 39.5337H30.9629C31.9894 39.5337 32.9738 39.1259 33.6997 38.4001C34.4255 37.6743 34.8333 36.6898 34.8333 35.6633V10.506C34.8333 9.4795 34.4255 8.49506 33.6997 7.76923C32.9738 7.04339 31.9894 6.63562 30.9629 6.63562H19.3518V2.76526C19.3518 2.25202 19.1479 1.7598 18.785 1.39688C18.4221 1.03396 17.9299 0.830078 17.4166 0.830078ZM19.3518 6.63562V23.7194L22.8893 20.1819C23.2522 19.8188 23.7444 19.6147 24.2578 19.6145C24.7711 19.6143 25.2635 19.8181 25.6266 20.1809C25.9898 20.5438 26.1939 21.036 26.194 21.5494C26.1942 22.0627 25.9905 22.5551 25.6276 22.9182L19.1254 29.4185C18.6718 29.8717 18.0569 30.1263 17.4157 30.1263C16.7745 30.1263 16.1595 29.8717 15.7059 29.4185L9.20566 22.9182C9.02599 22.7384 8.88349 22.525 8.7863 22.2901C8.68911 22.0553 8.63914 21.8036 8.63923 21.5494C8.63932 21.2952 8.68947 21.0435 8.78683 20.8087C8.88418 20.5739 9.02683 20.3606 9.20663 20.1809C9.38642 20.0013 9.59985 19.8588 9.83472 19.7616C10.0696 19.6644 10.3213 19.6144 10.5755 19.6145C10.8297 19.6146 11.0813 19.6647 11.3161 19.7621C11.5509 19.8594 11.7643 20.0021 11.9439 20.1819L15.4815 23.7194V6.63562H19.3518Z" fill="black"/>
</svg>
