<svg width="22" height="27" viewBox="0 0 22 27" fill="none" xmlns="http://www.w3.org/2000/svg">
<path d="M20.3933 6.86784C20.8973 6.36384 21.1746 5.6945 21.1746 4.9825C21.1746 4.2705 20.8973 3.60117 20.3933 3.09717L18.2786 0.982505C17.7746 0.478505 17.1053 0.201172 16.3933 0.201172C15.6813 0.201172 15.0119 0.478505 14.5093 0.981172L0.333252 15.1132V20.9998H6.21725L20.3933 6.86784ZM16.3933 2.86784L18.5093 4.98117L16.3893 7.09317L14.2746 4.97984L16.3933 2.86784ZM2.99992 18.3332V16.2198L12.3866 6.8625L14.5013 8.97717L5.11592 18.3332H2.99992ZM0.333252 23.6665H21.6666V26.3332H0.333252V23.6665Z" fill="black"/>
</svg>