<svg width="24" height="24" viewBox="0 0 24 24" fill="none" xmlns="http://www.w3.org/2000/svg">
<path d="M14.8 0H5.2C4.35131 0 3.53737 0.337142 2.93726 0.937258C2.33714 1.53737 2 2.35131 2 3.2V19.2C2 20.0487 2.33714 20.8626 2.93726 21.4627C3.53737 22.0629 4.35131 22.4 5.2 22.4H8.8112C8.40366 21.9065 8.05117 21.37 7.76 20.8H5.2C4.77565 20.8 4.36869 20.6314 4.06863 20.3314C3.76857 20.0313 3.6 19.6243 3.6 19.2V19.1952H7.1296C6.70263 17.6881 6.6857 16.0943 7.08055 14.5784C7.4754 13.0625 8.26771 11.6795 9.37569 10.5722C10.4837 9.46489 11.8671 8.67338 13.3832 8.27943C14.8993 7.88547 16.4931 7.90334 18 8.3312V3.2C18 2.35131 17.6629 1.53737 17.0627 0.937258C16.4626 0.337142 15.6487 0 14.8 0ZM5.2 4H14.8C15.0122 4 15.2157 4.08429 15.3657 4.23431C15.5157 4.38434 15.6 4.58783 15.6 4.8V6.4C15.6 6.61217 15.5157 6.81566 15.3657 6.96569C15.2157 7.11571 15.0122 7.2 14.8 7.2H5.2C4.98783 7.2 4.78434 7.11571 4.63431 6.96569C4.48429 6.81566 4.4 6.61217 4.4 6.4V4.8C4.4 4.58783 4.48429 4.38434 4.63431 4.23431C4.78434 4.08429 4.98783 4 5.2 4ZM22.8 16.8C22.8 18.7096 22.0414 20.5409 20.6912 21.8912C19.3409 23.2414 17.5096 24 15.6 24C13.6904 24 11.8591 23.2414 10.5088 21.8912C9.15857 20.5409 8.4 18.7096 8.4 16.8C8.4 14.8904 9.15857 13.0591 10.5088 11.7088C11.8591 10.3586 13.6904 9.6 15.6 9.6C17.5096 9.6 19.3409 10.3586 20.6912 11.7088C22.0414 13.0591 22.8 14.8904 22.8 16.8ZM13.2 19.192C13.2 19.3335 13.2375 19.4726 13.3087 19.5949C13.38 19.7172 13.4824 19.8184 13.6056 19.8882C13.7287 19.958 13.8682 19.9938 14.0097 19.9921C14.1512 19.9904 14.2898 19.9512 14.4112 19.8784L18.4112 17.4832C18.5298 17.4122 18.6281 17.3116 18.6962 17.1913C18.7644 17.071 18.8003 16.9351 18.8003 16.7968C18.8003 16.6585 18.7644 16.5226 18.6962 16.4023C18.6281 16.282 18.5298 16.1814 18.4112 16.1104L14.4112 13.7152C14.2899 13.6425 14.1515 13.6033 14.0101 13.6015C13.8687 13.5997 13.7294 13.6354 13.6063 13.705C13.4832 13.7746 13.3807 13.8756 13.3093 13.9977C13.238 14.1198 13.2003 14.2586 13.2 14.4V19.192Z" fill="#353E45"/>
</svg>
