<svg width="45" height="49" viewBox="0 0 45 49" fill="none" xmlns="http://www.w3.org/2000/svg">
<path d="M23.8054 47.651L23.7812 47.6554L23.625 47.7324L23.581 47.7412L23.5502 47.7324L23.394 47.6554C23.3705 47.648 23.3529 47.6517 23.3412 47.6664L23.3324 47.6884L23.295 48.63L23.306 48.674L23.328 48.7026L23.5568 48.8654L23.5898 48.8742L23.6162 48.8654L23.845 48.7026L23.8714 48.6674L23.8802 48.63L23.8428 47.6906C23.8369 47.6671 23.8244 47.6539 23.8054 47.651ZM24.3884 47.4024L24.3598 47.4068L23.9528 47.6114L23.9308 47.6334L23.9242 47.6576L23.9638 48.6036L23.9748 48.63L23.9924 48.6454L24.4346 48.85C24.4624 48.8573 24.4837 48.8514 24.4984 48.8324L24.5072 48.8016L24.4324 47.4508C24.425 47.4244 24.4104 47.4082 24.3884 47.4024ZM22.8154 47.4068C22.8057 47.4009 22.7941 47.399 22.783 47.4014C22.772 47.4039 22.7623 47.4105 22.756 47.42L22.7428 47.4508L22.668 48.8016C22.6694 48.828 22.6819 48.8456 22.7054 48.8544L22.7384 48.85L23.1806 48.6454L23.2026 48.6278L23.2114 48.6036L23.2488 47.6576L23.2422 47.6312L23.2202 47.6092L22.8154 47.4068Z" fill="url(#paint0_linear_12148_16930)"/>
<path d="M22.5 0.882812C34.6506 0.882812 44.5 10.7322 44.5 22.8828C44.5 35.0334 34.6506 44.8828 22.5 44.8828C10.3494 44.8828 0.5 35.0334 0.5 22.8828C0.5 10.7322 10.3494 0.882812 22.5 0.882812ZM22.5 5.28281C17.8322 5.28281 13.3556 7.13709 10.0549 10.4377C6.75428 13.7384 4.9 18.215 4.9 22.8828C4.9 27.5506 6.75428 32.0273 10.0549 35.3279C13.3556 38.6285 17.8322 40.4828 22.5 40.4828C27.1678 40.4828 31.6444 38.6285 34.9451 35.3279C38.2457 32.0273 40.1 27.5506 40.1 22.8828C40.1 18.215 38.2457 13.7384 34.9451 10.4377C31.6444 7.13709 27.1678 5.28281 22.5 5.28281ZM22.5 9.68281C23.0389 9.68288 23.5589 9.88072 23.9616 10.2388C24.3643 10.5969 24.6216 11.0903 24.6846 11.6254L24.7 11.8828V21.972L30.6554 27.9274C31.05 28.3233 31.279 28.8546 31.2961 29.4133C31.3132 29.9719 31.1169 30.5162 30.7473 30.9354C30.3776 31.3547 29.8622 31.6175 29.3058 31.6705C28.7493 31.7235 28.1936 31.5627 27.7514 31.2208L27.5446 31.0382L20.9446 24.4382C20.6027 24.096 20.3831 23.6506 20.3198 23.171L20.3 22.8828V11.8828C20.3 11.2993 20.5318 10.7398 20.9444 10.3272C21.3569 9.9146 21.9165 9.68281 22.5 9.68281Z" fill="url(#paint1_linear_12148_16930)"/>
<defs>
<linearGradient id="paint0_linear_12148_16930" x1="23.5876" y1="47.4004" x2="23.5876" y2="48.8742" gradientUnits="userSpaceOnUse">
<stop offset="0.355" stop-color="#2D90E0"/>
<stop offset="1" stop-color="#FF118C"/>
</linearGradient>
<linearGradient id="paint1_linear_12148_16930" x1="22.5" y1="0.882812" x2="22.5" y2="44.8828" gradientUnits="userSpaceOnUse">
<stop offset="0.355" stop-color="#2D90E0"/>
<stop offset="1" stop-color="#FF118C"/>
</linearGradient>
</defs>
</svg>
