<svg width="60" height="43" viewBox="0 0 60 43" fill="none" xmlns="http://www.w3.org/2000/svg">
<path d="M56 31.0385L56 11.9615C56 8.67077 53.3527 6 50.0909 6L9.90909 6C6.64727 6 4 8.67077 4 11.9615L4 31.0385C4 34.3292 6.64727 37 9.90909 37L50.0909 37C53.3527 37 56 34.3292 56 31.0385ZM6.36364 21.5C6.36364 19.5208 7.94727 17.9231 9.90909 17.9231C11.8709 17.9231 13.4545 19.5208 13.4545 21.5C13.4545 23.4792 11.8709 25.0769 9.90909 25.0769C7.94727 25.0769 6.36364 23.4792 6.36364 21.5ZM15.8182 32.2308L15.8182 10.7692L48.9091 10.7692L48.9091 32.2308L15.8182 32.2308Z" fill="url(#paint0_linear_10297_27387)"/>
<defs>
<linearGradient id="paint0_linear_10297_27387" x1="56" y1="21.5" x2="4" y2="21.5" gradientUnits="userSpaceOnUse">
<stop offset="0.355" stop-color="#2D90E0"/>
<stop offset="1" stop-color="#FF118C"/>
</linearGradient>
</defs>
</svg>
