<svg width="44" height="45" viewBox="0 0 44 45" fill="none" xmlns="http://www.w3.org/2000/svg">
<path d="M22 33.8789L25.432 26.3549L33 22.8789L25.432 19.4469L22 11.8789L18.546 19.4469L11 22.8789L18.546 26.3549L22 33.8789ZM13.574 2.55091C16.2472 1.45079 19.1093 0.882848 22 0.878906C24.882 0.878906 27.742 1.45091 30.426 2.55091C33.088 3.65091 35.508 5.2789 37.554 7.3249C39.6 9.3709 41.228 11.7909 42.328 14.4529C43.428 17.1369 44 19.9969 44 22.8789C44 28.7089 41.69 34.3189 37.554 38.4329C35.5138 40.4789 33.0894 42.1015 30.4201 43.2077C27.7509 44.314 24.8894 44.8819 22 44.8789C19.1093 44.875 16.2472 44.307 13.574 43.2069C10.9077 42.0987 8.48571 40.4766 6.44601 38.4329C4.40005 36.3927 2.77736 33.9683 1.67116 31.299C0.56495 28.6298 -0.0029731 25.7683 1.17044e-05 22.8789C1.17044e-05 17.0489 2.31001 11.4389 6.44601 7.3249C8.49201 5.2789 10.912 3.65091 13.574 2.55091ZM9.54801 35.3309C12.848 38.6309 17.336 40.4789 22 40.4789C26.664 40.4789 31.152 38.6309 34.452 35.3309C37.752 32.0309 39.6 27.5429 39.6 22.8789C39.6 18.2149 37.752 13.7269 34.452 10.4269C32.8163 8.79302 30.8747 7.49741 28.7382 6.6141C26.6016 5.73079 24.312 5.27709 22 5.2789C17.336 5.2789 12.848 7.1269 9.54801 10.4269C7.91412 12.0626 6.61852 14.0042 5.73521 16.1407C4.8519 18.2773 4.39819 20.567 4.40001 22.8789C4.40001 27.5429 6.24801 32.0309 9.54801 35.3309Z" fill="url(#paint0_linear_12148_16932)"/>
<defs>
<linearGradient id="paint0_linear_12148_16932" x1="22" y1="0.878906" x2="22" y2="44.8789" gradientUnits="userSpaceOnUse">
<stop offset="0.355" stop-color="#2D90E0"/>
<stop offset="1" stop-color="#FF118C"/>
</linearGradient>
</defs>
</svg>
