<svg width="20" height="30" viewBox="0 0 20 30" fill="none" xmlns="http://www.w3.org/2000/svg">
<path fill-rule="evenodd" clip-rule="evenodd" d="M18.856 8.63645C19.5832 10.3637 18.0606 13.1819 15.4243 13.1819L5.46728 13.1819L5.05267 16.9763L15.4465 16.9764C18.7553 16.9764 20.3446 21.0366 17.915 23.2828L11.0004 29.9995L5.77312 29.9995L15.4465 20.6127L4.65534 20.6127L3.62962 29.9999H0L2.67499 5.45453L6.31162 5.45458L5.86462 9.54552L15.394 9.54546L12.7197 3.18193L9.08336 3.18193L9.5379 0.00012207H15.3106L18.856 8.63645ZM6.94753 0.00056694L3.31118 0.000566948L2.94791 3.18229L6.58386 3.18233L6.94753 0.00056694Z" fill="black"/>
</svg>
