<svg width="24" height="24" viewBox="0 0 24 24" fill="none" xmlns="http://www.w3.org/2000/svg">
<path d="M22.7685 8.45012L15.4994 1.1855L16.01 0.675174C16.4706 0.214881 17.0413 -0.0100615 17.7222 0.000345117C18.403 0.0107517 18.9737 0.245701 19.4343 0.705193L23.3091 4.57765C23.7697 5.03795 24 5.60351 24 6.27433C24 6.94516 23.7697 7.51032 23.3091 7.96981L22.7685 8.45012ZM7.95995 23.3096C7.49937 23.7699 6.93387 24 6.26343 24C5.59299 24 5.02708 23.7699 4.56571 23.3096L0.690863 19.4371C0.230288 18.9768 0 18.4116 0 17.7416C0 17.0716 0.230288 16.506 0.690863 16.0449L1.17146 15.5646L8.44055 22.8293L7.95995 23.3096ZM12.3154 22.469C12.0751 22.7092 11.7947 22.8293 11.4743 22.8293C11.1539 22.8293 10.8736 22.7092 10.6333 22.469L1.53191 13.3732C1.29161 13.1331 1.17146 12.8529 1.17146 12.5327C1.17146 12.2125 1.29161 11.9323 1.53191 11.6922L3.24405 9.95107C3.48436 9.71092 3.76991 9.59084 4.10073 9.59084C4.43154 9.59084 4.7167 9.71092 4.95619 9.95107L6.84856 11.8423L11.8348 6.8591L9.94243 4.9679C9.70213 4.72775 9.58198 4.44757 9.58198 4.12737C9.58198 3.80716 9.70213 3.52699 9.94243 3.28683L11.6546 1.54573C11.8949 1.30557 12.1804 1.1855 12.5112 1.1855C12.8421 1.1855 13.1272 1.30557 13.3667 1.54573L22.4681 10.6415C22.7084 10.8817 22.8285 11.167 22.8285 11.4977C22.8285 11.8283 22.7084 12.1132 22.4681 12.3526L20.7259 14.0637C20.4856 14.3038 20.2053 14.4239 19.8849 14.4239C19.5645 14.4239 19.2841 14.3038 19.0438 14.0637L17.1514 12.1725L12.1652 17.1556L14.0576 19.0469C14.2979 19.287 14.418 19.572 14.418 19.9018C14.418 20.2316 14.2979 20.517 14.0576 20.7579L12.3154 22.469Z" fill="#353E45"/>
</svg>
