<svg width="24" height="24" viewBox="0 0 24 24" fill="none" xmlns="http://www.w3.org/2000/svg">
<g clip-path="url(#clip0_10297_26302)">
<path d="M20.4555 3.54443L22.9695 4.04693C23.1045 4.07393 23.2155 4.17293 23.2545 4.30643C23.2742 4.37128 23.276 4.44026 23.2596 4.50603C23.2432 4.57179 23.2093 4.63189 23.1615 4.67993L21.102 6.74093C20.8552 6.98633 20.5215 7.12434 20.1735 7.12493H18.465L14.175 11.4164C14.2568 11.7255 14.2719 12.0484 14.2192 12.3637C14.1664 12.679 14.0471 12.9795 13.8691 13.245C13.6911 13.5106 13.4586 13.7352 13.1871 13.9039C12.9155 14.0725 12.6111 14.1814 12.2941 14.2232C11.9772 14.265 11.655 14.2387 11.349 14.1462C11.043 14.0537 10.7602 13.8971 10.5194 13.6867C10.2787 13.4764 10.0856 13.2171 9.95291 12.9263C9.82023 12.6354 9.75106 12.3196 9.75 11.9999C9.74993 11.6547 9.82931 11.314 9.98201 11.0044C10.1347 10.6947 10.3566 10.4243 10.6306 10.2142C10.9045 10.0041 11.2232 9.85978 11.5618 9.79254C11.9005 9.7253 12.25 9.7369 12.5835 9.82644L16.875 5.53343V3.82793C16.875 3.47993 17.013 3.14543 17.259 2.89943L19.32 0.838434C19.368 0.790628 19.4281 0.756735 19.4939 0.740359C19.5597 0.723983 19.6286 0.725737 19.6935 0.745434C19.827 0.784434 19.926 0.895434 19.953 1.03043L20.4555 3.54443Z" fill="url(#paint0_linear_10297_26302)"/>
<path d="M3.00004 11.9999C3.00158 13.2869 3.2791 14.5585 3.81389 15.7291C4.34868 16.8997 5.12829 17.9419 6.10013 18.7856C7.07197 19.6292 8.21344 20.2546 9.44754 20.6196C10.6816 20.9846 11.9797 21.0807 13.2541 20.9014C14.5284 20.7221 15.7496 20.2715 16.835 19.5801C17.9205 18.8888 18.845 17.9726 19.5463 16.8936C20.2476 15.8145 20.7094 14.5976 20.9004 13.3249C21.0914 12.0522 21.0072 10.7533 20.6535 9.51594C20.6039 9.37138 20.5842 9.21822 20.5956 9.06579C20.607 8.91337 20.6494 8.76486 20.72 8.62931C20.7907 8.49377 20.8882 8.37402 21.0066 8.27736C21.125 8.1807 21.2618 8.10914 21.4088 8.06706C21.5557 8.02497 21.7097 8.01323 21.8613 8.03255C22.013 8.05187 22.1591 8.10185 22.2908 8.17944C22.4225 8.25703 22.537 8.36061 22.6274 8.48387C22.7178 8.60714 22.7821 8.74751 22.8165 8.89644C23.5013 11.2927 23.3712 13.8486 22.4467 16.1629C21.5222 18.4773 19.8555 20.4193 17.7082 21.6843C15.5608 22.9492 13.0543 23.4655 10.5819 23.1521C8.10942 22.8388 5.81095 21.7136 4.04704 19.9529C2.28505 18.1895 1.1586 15.8908 0.844545 13.4178C0.530488 10.9448 1.04661 8.43747 2.31187 6.28955C3.57714 4.14164 5.5199 2.47474 7.83513 1.55055C10.1504 0.626372 12.707 0.497244 15.1035 1.18344C15.3889 1.26686 15.6296 1.45985 15.7731 1.72022C15.9167 1.9806 15.9513 2.2872 15.8694 2.57301C15.7875 2.85882 15.5959 3.10061 15.3363 3.24554C15.0767 3.39046 14.7703 3.42674 14.484 3.34644C13.1439 2.96162 11.7327 2.89342 10.3617 3.14724C8.99066 3.40107 7.69738 3.96996 6.58383 4.80905C5.47028 5.64814 4.56691 6.73448 3.94498 7.98239C3.32305 9.2303 2.99956 10.6056 3.00004 11.9999Z" fill="url(#paint1_linear_10297_26302)"/>
<path d="M7.49998 12.0001C7.50007 12.82 7.72401 13.6243 8.14763 14.3263C8.57126 15.0282 9.17849 15.6012 9.90384 15.9834C10.6292 16.3656 11.4451 16.5425 12.2636 16.4951C13.0821 16.4476 13.8722 16.1776 14.5485 15.7141C15.2247 15.2495 15.761 14.6088 16.0994 13.8614C16.4378 13.114 16.5654 12.2883 16.4685 11.4736C16.4423 11.2759 16.4692 11.0748 16.5466 10.891C16.6239 10.7071 16.7488 10.5473 16.9085 10.4278C17.0682 10.3083 17.2568 10.2335 17.455 10.2112C17.6532 10.1888 17.8537 10.2197 18.036 10.3006C18.2182 10.3805 18.376 10.5072 18.4933 10.668C18.6105 10.8287 18.6831 11.0177 18.7035 11.2156C18.8665 12.6078 18.592 14.0161 17.9183 15.2452C17.2445 16.4743 16.2048 17.4632 14.9435 18.0745C13.6822 18.6859 12.2619 18.8895 10.8796 18.657C9.49739 18.4245 8.2218 17.7675 7.22993 16.7771C6.23805 15.7867 5.57909 14.5121 5.34449 13.1303C5.10989 11.7484 5.3113 10.3277 5.92076 9.0655C6.53022 7.80328 7.51751 6.76209 8.74558 6.08645C9.97365 5.41081 11.3816 5.13423 12.774 5.2951C12.9231 5.30893 13.0679 5.35239 13.2 5.42292C13.3321 5.49346 13.4487 5.58965 13.5432 5.70585C13.6376 5.82206 13.7079 5.95595 13.7499 6.09967C13.7919 6.24339 13.8048 6.39405 13.7878 6.54282C13.7708 6.69158 13.7243 6.83547 13.651 6.96603C13.5777 7.0966 13.4791 7.21121 13.3609 7.30316C13.2427 7.39512 13.1074 7.46255 12.9628 7.50152C12.8183 7.54049 12.6674 7.55021 12.519 7.5301C11.8885 7.45689 11.2496 7.5179 10.6443 7.70912C10.0391 7.90034 9.48112 8.21745 9.00711 8.63961C8.5331 9.06177 8.15376 9.57944 7.89401 10.1586C7.63426 10.7378 7.49998 11.3654 7.49998 12.0001Z" fill="url(#paint2_linear_10297_26302)"/>
</g>
<defs>
<linearGradient id="paint0_linear_10297_26302" x1="16.5103" y1="2.05644" x2="24.0808" y2="2.81326" gradientUnits="userSpaceOnUse">
<stop offset="0.035" stop-color="#2D90E0"/>
<stop offset="1" stop-color="#ABD3F3"/>
</linearGradient>
<linearGradient id="paint1_linear_10297_26302" x1="12.0023" y1="2.95788" x2="24.5976" y2="4.21646" gradientUnits="userSpaceOnUse">
<stop offset="0.035" stop-color="#2D90E0"/>
<stop offset="1" stop-color="#ABD3F3"/>
</linearGradient>
<linearGradient id="paint2_linear_10297_26302" x1="11.9993" y1="6.57638" x2="19.5582" y2="7.33164" gradientUnits="userSpaceOnUse">
<stop offset="0.035" stop-color="#2D90E0"/>
<stop offset="1" stop-color="#ABD3F3"/>
</linearGradient>
<clipPath id="clip0_10297_26302">
<rect width="24" height="24" fill="white"/>
</clipPath>
</defs>
</svg>
