<svg width="24" height="24" viewBox="0 0 24 24" fill="none" xmlns="http://www.w3.org/2000/svg">
<path d="M14.5 4.5C14.5 5.16304 14.2366 5.79893 13.7678 6.26777C13.2989 6.73661 12.663 7 12 7C11.337 7 10.7011 6.73661 10.2322 6.26777C9.76339 5.79893 9.5 5.16304 9.5 4.5C9.5 3.83696 9.76339 3.20107 10.2322 2.73223C10.7011 2.26339 11.337 2 12 2C12.663 2 13.2989 2.26339 13.7678 2.73223C14.2366 3.20107 14.5 3.83696 14.5 4.5Z" fill="url(#paint0_linear_10297_26292)"/>
<path d="M4.03006 7.76007C4.09389 7.50292 4.25717 7.28161 4.48403 7.14474C4.7109 7.00787 4.98281 6.96663 5.24006 7.03007C7.90106 7.68807 9.93406 8.00107 11.9571 8.00007C13.9811 7.99907 16.0441 7.68207 18.7671 7.02807C19.022 6.97388 19.2881 7.02139 19.5085 7.16046C19.729 7.29954 19.8864 7.5192 19.9473 7.77264C20.0082 8.02609 19.9677 8.29329 19.8345 8.51733C19.7012 8.74137 19.4858 8.90453 19.2341 8.97207C17.6811 9.34607 16.3021 9.62107 15.0001 9.79207V13.9641L15.4971 20.9291C15.5064 21.0601 15.4898 21.1916 15.4483 21.3162C15.4068 21.4408 15.3411 21.556 15.2551 21.6552C15.1691 21.7544 15.0643 21.8357 14.9469 21.8945C14.8294 21.9532 14.7016 21.9882 14.5706 21.9976C14.4396 22.0069 14.308 21.9903 14.1834 21.9488C14.0588 21.9073 13.9436 21.8416 13.8444 21.7556C13.7452 21.6696 13.6639 21.5648 13.6052 21.4474C13.5464 21.3299 13.5114 21.2021 13.5021 21.0711L13.1401 16.0001H10.8601L10.4971 21.0711C10.4917 21.2049 10.4595 21.3362 10.4023 21.4574C10.3452 21.5785 10.2643 21.6869 10.1645 21.7762C10.0647 21.8655 9.94798 21.9338 9.82126 21.9771C9.69454 22.0204 9.56041 22.0378 9.42684 22.0283C9.29326 22.0188 9.16295 21.9825 9.04365 21.9217C8.92434 21.8609 8.81847 21.7767 8.73231 21.6742C8.64616 21.5717 8.58147 21.4529 8.54209 21.3249C8.50271 21.1969 8.48944 21.0623 8.50306 20.9291L9.00006 13.9641V9.80407C7.69006 9.63407 6.31106 9.35407 4.76006 8.97107C4.50269 8.90725 4.2812 8.74382 4.14431 8.51673C4.00741 8.28963 3.96632 8.01746 4.03006 7.76007Z" fill="url(#paint1_linear_10297_26292)"/>
<defs>
<linearGradient id="paint0_linear_10297_26292" x1="12" y1="2.49107" x2="14.7996" y2="2.7708" gradientUnits="userSpaceOnUse">
<stop offset="0.035" stop-color="#2D90E0"/>
<stop offset="1" stop-color="#ABD3F3"/>
</linearGradient>
<linearGradient id="paint1_linear_10297_26292" x1="11.9878" y1="8.47712" x2="20.9207" y2="9.42573" gradientUnits="userSpaceOnUse">
<stop offset="0.035" stop-color="#2D90E0"/>
<stop offset="1" stop-color="#ABD3F3"/>
</linearGradient>
</defs>
</svg>
