<svg width="24" height="25" viewBox="0 0 24 25" fill="none" xmlns="http://www.w3.org/2000/svg">
<path fill-rule="evenodd" clip-rule="evenodd" d="M6.66667 5.83333C6.66667 4.41885 7.22857 3.06229 8.22876 2.0621C9.22896 1.0619 10.5855 0.5 12 0.5C13.4145 0.5 14.771 1.0619 15.7712 2.0621C16.7714 3.06229 17.3333 4.41885 17.3333 5.83333C17.3333 7.24782 16.7714 8.60438 15.7712 9.60457C14.771 10.6048 13.4145 11.1667 12 11.1667C10.5855 11.1667 9.22896 10.6048 8.22876 9.60457C7.22857 8.60438 6.66667 7.24782 6.66667 5.83333ZM6.66667 13.8333C4.89856 13.8333 3.20286 14.5357 1.95262 15.786C0.702379 17.0362 0 18.7319 0 20.5C0 21.5609 0.421427 22.5783 1.17157 23.3284C1.92172 24.0786 2.93913 24.5 4 24.5H20C21.0609 24.5 22.0783 24.0786 22.8284 23.3284C23.5786 22.5783 24 21.5609 24 20.5C24 18.7319 23.2976 17.0362 22.0474 15.786C20.7971 14.5357 19.1014 13.8333 17.3333 13.8333H6.66667Z" fill="#353E45"/>
</svg>
