<svg width="96" height="96" viewBox="0 0 96 96" fill="none" xmlns="http://www.w3.org/2000/svg">
<g clip-path="url(#clip0_10873_22434)">
<g filter="url(#filter0_d_10873_22434)">
<path d="M52.8696 8.50746C52.8696 7.12263 53.9922 6 55.377 6H68.087H87.4925C88.8774 6 90 7.12263 90 8.50746V87.4925C90 88.8774 88.8774 90 87.4925 90H8.50746C7.12263 90 6 88.8774 6 87.4925V59.1545C6 57.7697 7.12263 56.6471 8.50746 56.6471H19.3186C20.7035 56.6471 21.8261 55.5244 21.8261 54.1396V46.8016C21.8261 45.4167 22.9487 44.2941 24.3335 44.2941H32.1012C33.4861 44.2941 34.6087 43.1715 34.6087 41.7867V36.3016C34.6087 34.9167 35.7313 33.7941 37.1162 33.7941H50.3621C51.7469 33.7941 52.8696 32.6715 52.8696 31.2867V8.50746Z" fill="#FDFDFD"/>
</g>
<path d="M58.6269 44H80.6269V81H14.6269V67.9412H29.2936V55.9706H43.9602V44L58.6269 44Z" fill="#BED8ED"/>
<path fill-rule="evenodd" clip-rule="evenodd" d="M63.9688 12.8157H80.5878C81.0012 12.8157 81.3977 12.9928 81.6901 13.3082C81.9824 13.6235 82.1466 14.0512 82.1466 14.4972V29.6308C82.1466 30.0768 81.9824 30.5045 81.6901 30.8198C81.3977 31.1351 81.0012 31.3123 80.5878 31.3123H63.9688L63.9688 38.3516H66.8637V41.6277H80.3842H83.8717V45.1152V80.6886V84.1761H80.3842H15.4875H12V80.6886V68.1333V64.6458H15.4875H26.4215V56.6243V53.1368H29.909H40.843V45.1152V41.6277H44.3305L57.3996 41.6277V38.3516H60.2388L60.2388 11.9121H63.9688V12.8157ZM63.9688 27.9493H79.029V16.1787H63.9688V27.9493ZM44.3305 56.6243V53.1368V48.6027V45.1152H47.818L58.752 45.1152H76.8967H80.3842V48.6027V77.2011V80.6886H76.8967H18.975H15.4875V77.2011V71.6208V68.1333H18.975H26.4215H29.909V64.6458V60.1118V56.6243H33.3965H40.843H44.3305Z" fill="#2E90E0"/>
</g>
<defs>
<filter id="filter0_d_10873_22434" x="-2" y="-2" width="100" height="100" filterUnits="userSpaceOnUse" color-interpolation-filters="sRGB">
<feFlood flood-opacity="0" result="BackgroundImageFix"/>
<feColorMatrix in="SourceAlpha" type="matrix" values="0 0 0 0 0 0 0 0 0 0 0 0 0 0 0 0 0 0 127 0" result="hardAlpha"/>
<feOffset/>
<feGaussianBlur stdDeviation="4"/>
<feComposite in2="hardAlpha" operator="out"/>
<feColorMatrix type="matrix" values="0 0 0 0 0 0 0 0 0 0 0 0 0 0 0 0 0 0 0.24 0"/>
<feBlend mode="normal" in2="BackgroundImageFix" result="effect1_dropShadow_10873_22434"/>
<feBlend mode="normal" in="SourceGraphic" in2="effect1_dropShadow_10873_22434" result="shape"/>
</filter>
<clipPath id="clip0_10873_22434">
<rect width="96" height="96" fill="white"/>
</clipPath>
</defs>
</svg>
