<svg width="96" height="96" viewBox="0 0 96 96" fill="none" xmlns="http://www.w3.org/2000/svg">
<g clip-path="url(#clip0_10873_22428)">
<g filter="url(#filter0_d_10873_22428)">
<path d="M52.8696 8.45961C52.8696 7.10121 53.9708 6 55.3292 6H68.087H87.5404C88.8988 6 90 7.10121 90 8.45962V87.5404C90 88.8988 88.8988 90 87.5404 90H8.45962C7.10121 90 6 88.8988 6 87.5404V59.1067C6 57.7483 7.10121 56.6471 8.45962 56.6471H19.3665C20.7249 56.6471 21.8261 55.5458 21.8261 54.1874V46.7537C21.8261 45.3953 22.9273 44.2941 24.2857 44.2941H32.1491C33.5075 44.2941 34.6087 43.1929 34.6087 41.8345V36.2537C34.6087 34.8953 35.7099 33.7941 37.0683 33.7941H50.4099C51.7684 33.7941 52.8696 32.6929 52.8696 31.3345V8.45961Z" fill="black"/>
</g>
<path d="M59 45H81V81H15V68.2941H29.6667V56.6471H44.3333V45L59 45Z" fill="#0C528A" fill-opacity="0.75"/>
<path fill-rule="evenodd" clip-rule="evenodd" d="M63.9117 12.8108H80.5339C80.9474 12.8108 81.344 12.988 81.6364 13.3033C81.9288 13.6187 82.093 14.0464 82.093 14.4924V29.6269C82.093 30.0728 81.9288 30.5006 81.6364 30.8159C81.344 31.1313 80.9474 31.3085 80.5339 31.3085H63.9117L63.9116 38.3481H66.8071V41.6914H80.3304H83.7513V45.1123V80.6876V84.1085H80.3304H15.4209H12V80.6876V68.1316V64.7106H15.4209H26.4243V56.6219V53.201H29.8453H40.8486V45.1123V41.6914H44.2696L57.3411 41.6914V38.3481H60.1809L60.181 11.9072H63.9117V12.8108ZM63.9117 27.9453H78.9748V16.174H63.9117V27.9453ZM44.2696 56.6219V53.201V48.5332V45.1123H47.6905L58.6939 45.1123H76.9094H80.3304V48.5332V77.2666V80.6876H76.9094H18.8419H15.4209V77.2666V71.5525V68.1316H18.8419H26.4243H29.8453V64.7106V60.0429V56.6219H33.2662H40.8486H44.2696Z" fill="url(#paint0_linear_10873_22428)"/>
</g>
<defs>
<filter id="filter0_d_10873_22428" x="1.08077" y="2.31058" width="93.8385" height="93.8385" filterUnits="userSpaceOnUse" color-interpolation-filters="sRGB">
<feFlood flood-opacity="0" result="BackgroundImageFix"/>
<feColorMatrix in="SourceAlpha" type="matrix" values="0 0 0 0 0 0 0 0 0 0 0 0 0 0 0 0 0 0 127 0" result="hardAlpha"/>
<feOffset dy="1.22981"/>
<feGaussianBlur stdDeviation="2.45962"/>
<feComposite in2="hardAlpha" operator="out"/>
<feColorMatrix type="matrix" values="0 0 0 0 0 0 0 0 0 0 0 0 0 0 0 0 0 0 0.8 0"/>
<feBlend mode="normal" in2="BackgroundImageFix" result="effect1_dropShadow_10873_22428"/>
<feBlend mode="normal" in="SourceGraphic" in2="effect1_dropShadow_10873_22428" result="shape"/>
</filter>
<linearGradient id="paint0_linear_10873_22428" x1="47.8757" y1="18.9984" x2="88.0557" y2="22.988" gradientUnits="userSpaceOnUse">
<stop offset="0.035" stop-color="#2D90E0"/>
<stop offset="1" stop-color="#ABD3F3"/>
</linearGradient>
<clipPath id="clip0_10873_22428">
<rect width="96" height="96" fill="white"/>
</clipPath>
</defs>
</svg>
